<svg id="visual" viewBox="0 0 900 600" width="900" height="600" xmlns="http://www.w3.org/2000/svg" xmlns:xlink="http://www.w3.org/1999/xlink" version="1.1"><path d="M0 109L82 145L164 247L245 103L327 169L409 145L491 175L573 151L655 235L736 241L818 229L900 145L900 0L818 0L736 0L655 0L573 0L491 0L409 0L327 0L245 0L164 0L82 0L0 0Z" fill="#00cc8e"></path><path d="M0 181L82 235L164 289L245 181L327 205L409 193L491 265L573 193L655 283L736 337L818 307L900 181L900 143L818 227L736 239L655 233L573 149L491 173L409 143L327 167L245 101L164 245L82 143L0 107Z" fill="#00b98a"></path><path d="M0 349L82 367L164 433L245 295L327 343L409 277L491 355L573 331L655 361L736 403L818 385L900 313L900 179L818 305L736 335L655 281L573 191L491 263L409 191L327 203L245 179L164 287L82 233L0 179Z" fill="#00a784"></path><path d="M0 391L82 427L164 511L245 343L327 469L409 355L491 433L573 463L655 463L736 475L818 433L900 355L900 311L818 383L736 401L655 359L573 329L491 353L409 275L327 341L245 293L164 431L82 365L0 347Z" fill="#00957c"></path><path d="M0 601L82 601L164 601L245 601L327 601L409 601L491 601L573 601L655 601L736 601L818 601L900 601L900 353L818 431L736 473L655 461L573 461L491 431L409 353L327 467L245 341L164 509L82 425L0 389Z" fill="#038373"></path></svg>